Coordinates
version=1
nRows=60
nColumns=12
inDegrees=yes

Units are S.I. units (second, meters, Newtons, ...)
Angles are in degrees

endheader
time	SC_y	SC_z	SC_x	AC_y	AC_z	AC_x	GH_y	GH_z	GH_yy	EL_x	PS_y
       0.0              -25.84          5.182          33.12          31.13           4.28          16.99          88.16         -11.69          27.13          34.28          107.0
   0.03287              -25.84          5.184          33.13          31.13          4.281          16.99          88.16         -11.68          27.15           34.3          107.0
   0.06573              -25.84          5.185          33.13          31.13          4.281          16.99          88.16         -11.67          27.17          34.31          107.0
    0.0986              -25.84          5.187          33.14          31.13          4.282          16.99          88.16         -11.66           27.2          34.33          107.0
    0.1315              -25.84          5.189          33.15          31.13          4.283          16.99          88.16         -11.65          27.22          34.35          107.0
    0.1643              -25.84          5.191          33.16          31.14          4.284          16.99          88.16         -11.64          27.25          34.37          107.0
    0.1972              -25.84          5.193          33.17          31.14          4.285          16.99          88.16         -11.62          27.27          34.39          107.0
    0.2301              -25.84          5.195          33.17          31.14          4.287          16.98          88.16         -11.61           27.3          34.41          107.0
    0.2629              -25.84          5.197          33.18          31.14          4.288          16.98          88.16         -11.59          27.34          34.43          107.0
    0.2958              -25.84          5.199          33.19          31.14          4.289          16.98          88.16         -11.58          27.37          34.45          107.0
    0.3287              -25.84          5.202          33.21          31.14          4.291          16.98          88.16         -11.56          27.41          34.48          107.0
    0.3615              -25.84          5.205          33.22          31.14          4.292          16.98          88.16         -11.54          27.44          34.51          107.0
    0.3944              -25.84          5.208          33.23          31.14          4.294          16.98          88.15         -11.52          27.49          34.54          107.0
    0.4273              -25.84          5.211          33.24          31.15          4.296          16.98          88.15          -11.5          27.53          34.57          107.0
    0.4601              -25.84          5.215          33.26          31.15          4.298          16.98          88.15         -11.48          27.58          34.61          107.0
     0.493              -25.84          5.219          33.27          31.15            4.3          16.98          88.15         -11.45          27.64          34.64          107.0
    0.5259              -25.84          5.223          33.29          31.15          4.302          16.98          88.15         -11.43          27.69          34.69          107.0
    0.5587              -25.84          5.228          33.31          31.15          4.305          16.98          88.15          -11.4          27.76          34.73          107.0
    0.5916              -25.84          5.233          33.33          31.16          4.307          16.98          88.15         -11.36          27.83          34.78          107.0
    0.6245              -25.84          5.238          33.36          31.16           4.31          16.98          88.14         -11.33           27.9          34.84          107.0
    0.6573              -25.84          5.244          33.38          31.16          4.314          16.97          88.14         -11.29          27.98           34.9          107.0
    0.6902              -25.84          5.251          33.41          31.16          4.317          16.97          88.14         -11.24          28.08          34.96          107.0
    0.7231              -25.84          5.258          33.44          31.17          4.321          16.97          88.14          -11.2          28.18          35.03          106.9
    0.7559              -25.84          5.266          33.47          31.17          4.326          16.97          88.13         -11.14          28.29          35.11          106.9
    0.7888              -25.84          5.275          33.51          31.18          4.331          16.97          88.13         -11.09          28.41           35.2          106.9
    0.8217              -25.83          5.285          33.55          31.18          4.336          16.97          88.13         -11.02          28.55           35.3          106.9
    0.8545              -25.83          5.297           33.6          31.19          4.342          16.96          88.12         -10.95          28.71          35.42          106.9
    0.8874              -25.83          5.309          33.65          31.19          4.349          16.96          88.12         -10.86          28.88          35.54          106.9
    0.9202              -25.83          5.324          33.71           31.2          4.357          16.96          88.11         -10.77          29.08          35.68          106.8
    0.9531              -25.83           5.34          33.78          31.21          4.366          16.95          88.11         -10.66           29.3          35.85          106.8
     0.986              -25.83          5.358          33.86          31.22          4.376          16.95           88.1         -10.54          29.56          36.03          106.8
     1.019              -25.82           5.38          33.95          31.23          4.388          16.95           88.1         -10.41          29.85          36.24          106.8
     1.052              -25.82          5.404          34.05          31.24          4.401          16.94          88.09         -10.24          30.19          36.49          106.7
     1.085              -25.82          5.433          34.17          31.25          4.417          16.94          88.08         -10.06          30.59          36.77          106.7
     1.117              -25.82          5.467          34.31          31.27          4.435          16.93          88.07         -9.841          31.05           37.1          106.7
      1.15              -25.81          5.506          34.48          31.29          4.457          16.92          88.05         -9.584          31.59          37.49          106.6
     1.183              -25.81          5.553          34.68          31.31          4.482          16.91          88.04         -9.279          32.24          37.96          106.5
     1.216               -25.8          5.609          34.91          31.34          4.513           16.9          88.02         -8.913          33.01          38.51          106.5
     1.249              -25.79          5.677           35.2          31.37           4.55          16.89           88.0         -8.471          33.95          39.19          106.4
     1.282              -25.79           5.76          35.54          31.41          4.595          16.87          87.97          -7.93           35.1          40.01          106.2
     1.315              -25.78          5.863          35.97          31.46          4.651          16.85          87.93         -7.263          36.51          41.03          106.1
     1.348              -25.76          5.991          36.51          31.52          4.721          16.82          87.89         -6.431          38.27           42.3          105.9
      1.38              -25.75          6.152          37.18           31.6          4.809          16.79          87.84         -5.383          40.49          43.89          105.7
     1.413              -25.73          6.357          38.04           31.7          4.921          16.75          87.77         -4.051          43.31          45.93          105.4
     1.446               -25.7          6.619          39.14          31.82          5.064          16.69          87.68         -2.346          46.92          48.52          105.1
     1.479              -25.67          6.955          40.55          31.99          5.248          16.62          87.56        -0.1573          51.56          51.86          104.6
     1.512              -25.62          7.385          42.35          32.19          5.482          16.53          87.42          2.638          57.48          56.12          104.0
     1.545              -25.57          7.925          44.62          32.45          5.777          16.42          87.24          6.153          64.92          61.48          103.2
     1.578               -25.5          8.584          47.37          32.77          6.137          16.29          87.01          10.44          73.99           68.0          102.3
      1.61              -25.42          9.347          50.57          33.14          6.553          16.13          86.76           15.4          84.51          75.57          101.3
     1.643              -25.34          10.17          54.04          33.54          7.004          15.96          86.48          20.78          95.89          83.76          100.1
     1.676              -25.25           11.0           57.5          33.94          7.456          15.79           86.2          26.15          107.3          91.95          98.98
     1.709              -25.18          11.76           60.7           34.3          7.872          15.63          85.94          31.12          117.8          99.52          97.93
     1.742              -25.11          12.42          63.45          34.62          8.232           15.5          85.72           35.4          126.9          106.0          97.01
     1.775              -25.06          12.96          65.72          34.88          8.527          15.39          85.54          38.91          134.3          111.4          96.26
     1.808              -25.01          13.39          67.52          35.09          8.761           15.3          85.39          41.71          140.2          115.7          95.67
      1.84              -24.98          13.73          68.93          35.25          8.945          15.23          85.28           43.9          144.9          119.0           95.2
     1.873              -24.95          13.99          70.03          35.38          9.088          15.17          85.19           45.6          148.5          121.6          94.84
     1.906              -24.93           14.2          70.89          35.48            9.2          15.13          85.12          46.94          151.3          123.6          94.56
     1.939              -24.91          14.36          71.56          35.55          9.288           15.1          85.06          47.98          153.5          125.2          94.33
